<svg xmlns="http://www.w3.org/2000/svg" width="291.911" height="48" viewBox="0 0 291.911 48"><path d="M94.129,23.278c0-7.344-4.983-11.213-13.639-11.213-6.688,0-11.607,2.886-14.164,6.361l4.394,4.131A11.218,11.218,0,0,1,80.1,18.1c4.983,0,7.213,1.7,7.213,4.393,0,2.82-2.1,4.393-9.05,4.393-6.885,0-13.442,2.886-13.442,10.492C64.818,44.328,70,48,76.884,48c5.377,0,8.721-2.032,10.491-4.59a8.908,8.908,0,0,0,1.181,3.935h6.622a19.108,19.108,0,0,1-1.049-6.558ZM87.31,33.9c0,4.852-3.345,8.393-9.312,8.393-3.8,0-6.163-1.9-6.163-5.049,0-3.213,2.491-5.049,6.754-5.049,5.376,0,7.475-.525,8.721-1.967Z" fill="#ff5c00"/><rect width="7.082" height="34.623" transform="translate(123.408 12.721)" fill="#ff5c00"/><path d="M107.857,3.869h-7.082V37.377c0,7.8,4.131,10.623,10.164,10.623a20.446,20.446,0,0,0,5.311-.59v-6.1a12.662,12.662,0,0,1-4.065.589c-3.016,0-4.328-1.638-4.328-4.917V18.819h8.393v-6.1h-8.393Z" fill="#ff5c00"/><path d="M50.486,3.869H43.4V37.377C43.4,45.18,47.536,48,53.568,48a20.459,20.459,0,0,0,5.312-.59v-6.1a12.673,12.673,0,0,1-4.066.589c-3.016,0-4.328-1.638-4.328-4.917V18.819H58.88v-6.1H50.486Z" fill="#ff5c00"/><path d="M21.7,20.852C13.18,20,8.722,18.3,8.722,13.7c0-3.868,3.606-6.36,9.574-6.36,5.835,0,9.639,2.558,11.737,6.229L36,9.443C33.049,4.2,27.082.787,18.492.787,8.2.787,1.509,6.426,1.509,13.9c0,8,6.491,12,15.475,12.787,9.77.852,13.246,2.622,13.246,7.344S26.3,41.442,19.738,41.442c-6.164,0-10.885-2.95-13.115-8.262L0,36.525C2.951,43.476,9.837,48,19.607,48c11.738,0,17.967-6.426,17.967-14.032C37.574,25.443,32.263,21.9,21.7,20.852Z" fill="#ff5c00"/><circle cx="4.836" cy="4.836" r="4.836" transform="matrix(0.973, -0.23, 0.23, 0.973, 215.354, 6.133)" fill="#ff5c00"/><rect width="7.082" height="46.557" transform="translate(229.878 0.788)" fill="#ff5c00"/><path d="M196.336,12.065a14.2,14.2,0,0,0-10.951,4.656l-1.574-4h-6.427V47.345h7.082V30.491c0-8.262,4-12.392,10.492-12.392,4.459,0,6.557,2.622,6.557,7.409V47.345H208.6V25.181C208.6,16.524,204.926,12.065,196.336,12.065Z" fill="#ff5c00"/><path d="M153.932,12.065c-10.229,0-17.508,7.673-17.508,17.968S143.7,48,153.932,48s17.574-7.672,17.574-17.967S164.162,12.065,153.932,12.065Zm0,29.836c-6.3,0-10.425-4.852-10.425-11.868s4.13-11.869,10.425-11.869c6.362,0,10.492,4.852,10.492,11.869S160.294,41.9,153.932,41.9Z" fill="#ff5c00"/><path d="M126.982,0a3.869,3.869,0,1,0,3.869,3.869A3.869,3.869,0,0,0,126.982,0Z" fill="#ff5c00"/><path d="M244.7,24.066a23.6,23.6,0,0,0,20.95,23.448V40.357a16.5,16.5,0,0,1,0-32.582V.618A23.6,23.6,0,0,0,244.7,24.066Z" fill="#ff5c00"/><path d="M270.96.618V7.775a16.5,16.5,0,0,1,0,32.582v7.157a23.6,23.6,0,0,0,0-46.9Z" fill="#ff5c00"/></svg>